<svg width="43" height="57" viewBox="0 0 43 57" fill="none" xmlns="http://www.w3.org/2000/svg">
<path d="M40.352 40.736C40.352 42.464 39.92 44.064 39.056 45.536C38.192 46.976 36.912 48.144 35.216 49.04C33.52 49.904 31.456 50.336 29.024 50.336C26.624 50.336 24.48 49.936 22.592 49.136C20.704 48.304 19.184 47.12 18.032 45.584C16.912 44.048 16.272 42.256 16.112 40.208H23.312C23.472 41.584 24.016 42.736 24.944 43.664C25.904 44.56 27.168 45.008 28.736 45.008C30.144 45.008 31.216 44.64 31.952 43.904C32.72 43.136 33.104 42.16 33.104 40.976C33.104 39.92 32.8 39.056 32.192 38.384C31.584 37.68 30.816 37.12 29.888 36.704C28.96 36.288 27.68 35.808 26.048 35.264C23.936 34.56 22.208 33.872 20.864 33.2C19.52 32.496 18.368 31.488 17.408 30.176C16.48 28.864 16.016 27.152 16.016 25.04C16.016 22.128 17.056 19.84 19.136 18.176C21.248 16.48 24.032 15.632 27.488 15.632C31.072 15.632 33.92 16.496 36.032 18.224C38.176 19.952 39.392 22.256 39.68 25.136H32.384C32.192 23.92 31.68 22.928 30.848 22.16C30.016 21.36 28.88 20.96 27.44 20.96C26.192 20.96 25.184 21.296 24.416 21.968C23.648 22.608 23.264 23.552 23.264 24.8C23.264 25.792 23.552 26.624 24.128 27.296C24.736 27.936 25.488 28.464 26.384 28.88C27.312 29.296 28.56 29.76 30.128 30.272C32.304 31.04 34.064 31.76 35.408 32.432C36.784 33.104 37.952 34.112 38.912 35.456C39.872 36.8 40.352 38.56 40.352 40.736Z" fill="white"/>
<path d="M22.32 7.112V31.016C22.32 34.28 21.408 36.824 19.584 38.648C17.792 40.44 15.296 41.336 12.096 41.336C8.64 41.336 5.904 40.344 3.888 38.36C1.872 36.376 0.864 33.544 0.864 29.864H7.536C7.536 31.592 7.888 32.92 8.592 33.848C9.328 34.776 10.4 35.24 11.808 35.24C13.088 35.24 14.032 34.872 14.64 34.136C15.248 33.368 15.552 32.328 15.552 31.016V7.112H22.32Z" fill="white"/>
</svg>
