<svg xmlns="http://www.w3.org/2000/svg" width="158" height="659" viewBox="0 0 158 659" fill="none"><path d="M3.31999 537L115 537L115 559.4L37.08 559.4L115 588.04L115 607.56L37.4 636.2L115 636.2L115 658.76L3.32 658.76L3.32 631.4L87.32 597.48L3.31999 564.2L3.31999 537ZM26.36 501.372L86.52 477.212L26.36 454.812L26.36 430.012L157.24 484.252L157.24 509.212L112.44 489.212L26.36 526.492L26.36 501.372ZM0.919976 332.221C0.919975 318.461 4.33331 307.048 11.16 297.981C17.88 288.915 27 283.101 38.52 280.541L38.52 304.221C33.4 306.461 29.3466 310.035 26.36 314.941C23.2666 319.741 21.72 325.448 21.72 332.061C21.72 338.568 23.2133 344.328 26.2 349.341C29.1867 354.355 33.4533 358.248 39 361.021C44.5467 363.795 51.0533 365.181 58.52 365.181C70.36 365.181 79.5867 362.035 86.2 355.741C92.8133 349.341 96.12 340.648 96.12 329.661C96.12 321.555 93.72 314.621 88.92 308.861C84.12 302.995 77.4533 299.208 68.92 297.501L68.92 335.741L52.76 335.741L52.76 278.621L74.52 278.621C81.9866 280.221 88.8666 283.368 95.16 288.061C101.453 292.648 106.52 298.728 110.36 306.301C114.093 313.768 115.96 322.355 115.96 332.061C115.96 343.155 113.56 352.968 108.76 361.501C103.853 369.928 97.08 376.488 88.44 381.181C79.6933 385.768 69.72 388.061 58.52 388.061C47.32 388.061 37.4 385.768 28.76 381.181C20.0133 376.488 13.1866 369.928 8.27998 361.501C3.37331 353.075 0.919976 343.315 0.919976 332.221ZM67.32 178.369C69.56 178.369 72.12 178.635 75 179.169L75 244.129C82.8933 243.809 88.7066 241.675 92.44 237.729C96.1733 233.782 98.04 228.875 98.04 223.009C98.04 217.782 96.76 213.462 94.2 210.049C91.64 206.529 88.1733 204.289 83.8 203.329L83.8 179.489C89.9866 180.662 95.5333 183.169 100.44 187.009C105.347 190.849 109.187 195.809 111.96 201.889C114.733 207.862 116.12 214.529 116.12 221.889C116.12 230.529 114.307 238.209 110.68 244.929C106.947 251.649 101.667 256.875 94.84 260.609C88.0133 264.342 79.96 266.209 70.68 266.209C61.4 266.209 53.3466 264.342 46.52 260.609C39.5866 256.875 34.3066 251.649 30.68 244.929C27.0533 238.209 25.24 230.529 25.24 221.889C25.24 213.142 27.0533 205.515 30.68 199.009C34.3066 192.395 39.32 187.329 45.72 183.809C52.0133 180.182 59.2133 178.369 67.32 178.369ZM65.08 201.089C57.8266 200.769 52.3333 202.689 48.6 206.849C44.8666 210.902 43 215.915 43 221.889C43 227.969 44.8666 233.089 48.6 237.249C52.3333 241.409 57.8266 243.702 65.08 244.129L65.08 201.089ZM25.24 127.634C25.24 120.167 27 113.767 30.52 108.434C34.04 103.1 38.7866 99.3137 44.76 97.0737L26.36 97.0737L26.36 74.6737L115 74.6737L115 97.0737L96.44 97.0737C102.413 99.3137 107.213 103.1 110.84 108.434C114.36 113.767 116.12 120.167 116.12 127.634C116.12 135.1 114.307 141.82 110.68 147.794C107.053 153.767 101.827 158.46 95 161.874C88.0666 165.18 79.96 166.834 70.68 166.834C61.4 166.834 53.3466 165.18 46.52 161.874C39.5866 158.46 34.3066 153.767 30.68 147.794C27.0533 141.82 25.24 135.1 25.24 127.634ZM44.92 120.594C44.92 127.634 47.2133 133.287 51.8 137.554C56.3866 141.82 62.68 143.954 70.68 143.954C78.68 143.954 84.9733 141.82 89.56 137.554C94.04 133.287 96.28 127.634 96.28 120.594C96.28 113.767 93.9866 108.167 89.4 103.794C84.7066 99.3137 78.4666 97.0737 70.68 97.0737C62.7866 97.0737 56.5466 99.3137 51.96 103.794C47.2666 108.167 44.92 113.767 44.92 120.594ZM43.32 31.6687C37.6666 28.3621 33.24 23.9887 30.04 18.5487C26.7333 13.1087 25.08 7.02874 25.08 0.308744L49.24 0.308743L49.24 6.86874C49.24 23.4021 56.92 31.6687 72.28 31.6687L115 31.6687L115 54.2287L26.36 54.2287L26.36 31.6687L43.32 31.6687Z" fill="#1A1A1A"></path></svg>